<mxfile host="app.diagrams.net" modified="2023-05-23T09:00:14.520Z" agent="Mozilla/5.0 (Windows NT 10.0; Win64; x64) AppleWebKit/537.36 (KHTML, like Gecko) Chrome/113.0.0.0 Safari/537.36 Edg/113.0.1774.50" etag="gbK_qgGxKRa0YsQhJTGD" version="21.3.2" type="device">
  <diagram name="Page-1" id="CVjs9Tg_v4PQZmuT4pcr">
    <mxGraphModel dx="1379" dy="788" grid="1" gridSize="10" guides="1" tooltips="1" connect="1" arrows="1" fold="1" page="1" pageScale="1" pageWidth="1169" pageHeight="827" math="0" shadow="0">
      <root>
        <mxCell id="0" />
        <mxCell id="1" parent="0" />
        <mxCell id="7Rq1XuDB5FbzCgvfDypB-1" value="&lt;font color=&quot;#00994d&quot;&gt;VPC - chrislabtech - 10.0.0.0/16&amp;nbsp;&lt;/font&gt;" style="points=[[0,0],[0.25,0],[0.5,0],[0.75,0],[1,0],[1,0.25],[1,0.5],[1,0.75],[1,1],[0.75,1],[0.5,1],[0.25,1],[0,1],[0,0.75],[0,0.5],[0,0.25]];outlineConnect=0;gradientColor=none;html=1;whiteSpace=wrap;fontSize=12;fontStyle=0;container=1;pointerEvents=0;collapsible=0;recursiveResize=0;shape=mxgraph.aws4.group;grIcon=mxgraph.aws4.group_vpc;strokeColor=#248814;fillColor=none;verticalAlign=top;align=left;spacingLeft=30;fontColor=#AAB7B8;dashed=0;" parent="1" vertex="1">
          <mxGeometry x="160" y="240" width="680" height="440" as="geometry" />
        </mxCell>
        <mxCell id="7Rq1XuDB5FbzCgvfDypB-10" value="" style="endArrow=none;html=1;rounded=0;" parent="7Rq1XuDB5FbzCgvfDypB-1" source="7Rq1XuDB5FbzCgvfDypB-4" target="7Rq1XuDB5FbzCgvfDypB-6" edge="1">
          <mxGeometry width="50" height="50" relative="1" as="geometry">
            <mxPoint x="450" y="90" as="sourcePoint" />
            <mxPoint x="500" y="40" as="targetPoint" />
          </mxGeometry>
        </mxCell>
        <mxCell id="7Rq1XuDB5FbzCgvfDypB-4" value="subpub - 10.0.10.0/24" style="points=[[0,0],[0.25,0],[0.5,0],[0.75,0],[1,0],[1,0.25],[1,0.5],[1,0.75],[1,1],[0.75,1],[0.5,1],[0.25,1],[0,1],[0,0.75],[0,0.5],[0,0.25]];outlineConnect=0;gradientColor=none;html=1;whiteSpace=wrap;fontSize=12;fontStyle=0;container=1;pointerEvents=0;collapsible=0;recursiveResize=0;shape=mxgraph.aws4.group;grIcon=mxgraph.aws4.group_security_group;grStroke=0;strokeColor=#248814;fillColor=#E9F3E6;verticalAlign=top;align=left;spacingLeft=30;fontColor=#248814;dashed=0;" parent="7Rq1XuDB5FbzCgvfDypB-1" vertex="1">
          <mxGeometry x="400" y="80" width="240" height="320" as="geometry" />
        </mxCell>
        <mxCell id="7Rq1XuDB5FbzCgvfDypB-3" value="subpriv - 10.0.20.0/24" style="points=[[0,0],[0.25,0],[0.5,0],[0.75,0],[1,0],[1,0.25],[1,0.5],[1,0.75],[1,1],[0.75,1],[0.5,1],[0.25,1],[0,1],[0,0.75],[0,0.5],[0,0.25]];outlineConnect=0;gradientColor=none;html=1;whiteSpace=wrap;fontSize=12;fontStyle=0;container=1;pointerEvents=0;collapsible=0;recursiveResize=0;shape=mxgraph.aws4.group;grIcon=mxgraph.aws4.group_security_group;grStroke=0;strokeColor=#147EBA;fillColor=#E6F2F8;verticalAlign=top;align=left;spacingLeft=30;fontColor=#147EBA;dashed=0;" parent="7Rq1XuDB5FbzCgvfDypB-1" vertex="1">
          <mxGeometry x="120" y="80" width="160" height="200" as="geometry" />
        </mxCell>
        <mxCell id="7Rq1XuDB5FbzCgvfDypB-6" value="&lt;span style=&quot;background-color: rgb(255, 255, 255);&quot;&gt;igwchrislabtech&lt;/span&gt;" style="sketch=0;outlineConnect=0;fontColor=#232F3E;gradientColor=none;fillColor=#4D27AA;strokeColor=none;dashed=0;verticalLabelPosition=bottom;verticalAlign=top;align=center;html=1;fontSize=12;fontStyle=0;aspect=fixed;pointerEvents=1;shape=mxgraph.aws4.internet_gateway;" parent="7Rq1XuDB5FbzCgvfDypB-1" vertex="1">
          <mxGeometry x="500" width="40" height="40" as="geometry" />
        </mxCell>
        <mxCell id="7Rq1XuDB5FbzCgvfDypB-11" value="Region - paris" style="points=[[0,0],[0.25,0],[0.5,0],[0.75,0],[1,0],[1,0.25],[1,0.5],[1,0.75],[1,1],[0.75,1],[0.5,1],[0.25,1],[0,1],[0,0.75],[0,0.5],[0,0.25]];outlineConnect=0;gradientColor=none;html=1;whiteSpace=wrap;fontSize=12;fontStyle=0;container=1;pointerEvents=0;collapsible=0;recursiveResize=0;shape=mxgraph.aws4.group;grIcon=mxgraph.aws4.group_region;strokeColor=#147EBA;fillColor=none;verticalAlign=top;align=left;spacingLeft=30;fontColor=#147EBA;dashed=1;" parent="1" vertex="1">
          <mxGeometry x="120" y="200" width="760" height="520" as="geometry" />
        </mxCell>
        <mxCell id="7Rq1XuDB5FbzCgvfDypB-12" value="route table&lt;br&gt;rt-subpub" style="sketch=0;outlineConnect=0;fontColor=#232F3E;gradientColor=none;fillColor=#4D27AA;strokeColor=none;dashed=0;verticalLabelPosition=bottom;verticalAlign=top;align=center;html=1;fontSize=12;fontStyle=0;aspect=fixed;pointerEvents=1;shape=mxgraph.aws4.route_table;" parent="7Rq1XuDB5FbzCgvfDypB-11" vertex="1">
          <mxGeometry x="450" y="350" width="48" height="46.77" as="geometry" />
        </mxCell>
        <mxCell id="7Rq1XuDB5FbzCgvfDypB-20" value="dockerlab" style="sketch=0;points=[[0,0,0],[0.25,0,0],[0.5,0,0],[0.75,0,0],[1,0,0],[0,1,0],[0.25,1,0],[0.5,1,0],[0.75,1,0],[1,1,0],[0,0.25,0],[0,0.5,0],[0,0.75,0],[1,0.25,0],[1,0.5,0],[1,0.75,0]];outlineConnect=0;fontColor=#232F3E;gradientColor=#F78E04;gradientDirection=north;fillColor=#D05C17;strokeColor=#ffffff;dashed=0;verticalLabelPosition=bottom;verticalAlign=top;align=center;html=1;fontSize=12;fontStyle=0;aspect=fixed;shape=mxgraph.aws4.resourceIcon;resIcon=mxgraph.aws4.ec2;" parent="7Rq1XuDB5FbzCgvfDypB-11" vertex="1">
          <mxGeometry x="490" y="193" width="40" height="40" as="geometry" />
        </mxCell>
        <mxCell id="plsJluJsBv_lIhaVhgqq-8" style="edgeStyle=orthogonalEdgeStyle;rounded=0;orthogonalLoop=1;jettySize=auto;html=1;entryX=1;entryY=0.5;entryDx=0;entryDy=0;entryPerimeter=0;" edge="1" parent="7Rq1XuDB5FbzCgvfDypB-11" source="plsJluJsBv_lIhaVhgqq-6" target="7Rq1XuDB5FbzCgvfDypB-20">
          <mxGeometry relative="1" as="geometry" />
        </mxCell>
        <mxCell id="plsJluJsBv_lIhaVhgqq-6" value="Network interface&lt;br&gt;eni_chrislab&lt;br&gt;&lt;b&gt;13.37.200.78&lt;br&gt;10.0.10.47&lt;br&gt;&lt;br&gt;&lt;/b&gt;" style="sketch=0;outlineConnect=0;fontColor=#232F3E;gradientColor=none;fillColor=#4D27AA;strokeColor=none;dashed=0;verticalLabelPosition=bottom;verticalAlign=top;align=center;html=1;fontSize=12;fontStyle=0;aspect=fixed;pointerEvents=1;shape=mxgraph.aws4.elastic_network_interface;" vertex="1" parent="7Rq1XuDB5FbzCgvfDypB-11">
          <mxGeometry x="580" y="193" width="40" height="40" as="geometry" />
        </mxCell>
        <mxCell id="plsJluJsBv_lIhaVhgqq-1" value="Security Group&lt;br&gt;&lt;br&gt;inbound&lt;br&gt;ssh - myip&lt;br&gt;&lt;br&gt;outbound&lt;br&gt;all traffic - 0.0.0.0/0" style="fontStyle=0;verticalAlign=top;align=center;spacingTop=-2;fillColor=none;rounded=0;whiteSpace=wrap;html=1;strokeColor=#FF0000;strokeWidth=2;dashed=1;container=1;collapsible=0;expand=0;recursiveResize=0;" vertex="1" parent="7Rq1XuDB5FbzCgvfDypB-11">
          <mxGeometry x="40" y="340" width="160" height="140" as="geometry" />
        </mxCell>
        <mxCell id="7Rq1XuDB5FbzCgvfDypB-16" value="route table rt-pubsub" style="swimlane;fontStyle=0;childLayout=stackLayout;horizontal=1;startSize=26;fillColor=#d5e8d4;horizontalStack=0;resizeParent=1;resizeParentMax=0;resizeLast=0;collapsible=1;marginBottom=0;whiteSpace=wrap;html=1;strokeColor=#82b366;" parent="1" vertex="1">
          <mxGeometry x="920" y="200" width="160" height="80" as="geometry">
            <mxRectangle x="920" y="200" width="150" height="30" as="alternateBounds" />
          </mxGeometry>
        </mxCell>
        <mxCell id="7Rq1XuDB5FbzCgvfDypB-17" value="10.0.0.0/16 -&amp;gt; local" style="text;strokeColor=none;fillColor=none;align=left;verticalAlign=top;spacingLeft=4;spacingRight=4;overflow=hidden;rotatable=0;points=[[0,0.5],[1,0.5]];portConstraint=eastwest;whiteSpace=wrap;html=1;" parent="7Rq1XuDB5FbzCgvfDypB-16" vertex="1">
          <mxGeometry y="26" width="160" height="26" as="geometry" />
        </mxCell>
        <mxCell id="7Rq1XuDB5FbzCgvfDypB-19" value="0.0.0.0/0 -&amp;gt; igwchrislabtech" style="text;strokeColor=none;fillColor=none;align=left;verticalAlign=top;spacingLeft=4;spacingRight=4;overflow=hidden;rotatable=0;points=[[0,0.5],[1,0.5]];portConstraint=eastwest;whiteSpace=wrap;html=1;" parent="7Rq1XuDB5FbzCgvfDypB-16" vertex="1">
          <mxGeometry y="52" width="160" height="28" as="geometry" />
        </mxCell>
      </root>
    </mxGraphModel>
  </diagram>
</mxfile>
